# xmcd
#
# Track frame offsets:
#	182
#	13827
#	26917
#	40442
#	53580
#	74857
#	89625
#	99195
#	111865
#	126905
#	141495
#	155032
#	175067
#	186952
#	203752
#	218457
#
# Disc length: 3091 seconds
#
# Revision: 0
# Processed by: cddbd v1.4PL0 Copyright (c) Steve Scherf et al.
# Submitted via: dBpowerAMP V4.0
#
DISCID=f00c1110
DTITLE=Adamo - Adamo - 16 grands succès
DYEAR=1900
DGENRE=Chanson
TTITLE0=Une mèche de cheveux
TTITLE1=Mes mains sur tes hanches
TTITLE2=Vous permettez Monsieur
TTITLE3=Tombe la Neige
TTITLE4=Inch Allah
TTITLE5=La Nuit
TTITLE6=A Vot'Bon Coeur
TTITLE7=Les filles du bord de mer
TTITLE8=Petit Bonheur
TTITLE9=J'avais oublié que les Roses
TTITLE10=En Blue Jeans et Blousons de Cuir
TTITLE11=Pauvre Verlaine
TTITLE12=Le Barbu sans Barbe
TTITLE13=Italiano
TTITLE14=Les Belles Dames
TTITLE15=Une Larme aux Nuages
EXTD=
EXTT0=
EXTT1=
EXTT2=
EXTT3=
EXTT4=
EXTT5=
EXTT6=
EXTT7=
EXTT8=
EXTT9=
EXTT10=
EXTT11=
EXTT12=
EXTT13=
EXTT14=
EXTT15=
PLAYORDER=
